<?xml version="1.0" encoding="utf-8"?>
<svg viewBox="0 0 500 500" xmlns="http://www.w3.org/2000/svg">
  <path d="M 195.572 337.111 C 191.917 337.223 188.267 338.213 184.959 340.156 C 184.837 340.227 184.719 340.3 184.6 340.373 C 174.204 347.064 170.653 361.427 177.043 372.46 C 177.067 372.512 177.096 372.549 177.12 372.592 C 183.535 383.302 197.634 387.091 208.351 380.43 C 208.398 380.38 208.44 380.38 208.487 380.346 C 218.839 373.684 222.503 359.429 216.042 348.468 L 216.049 348.468 C 216.039 348.468 216.03 348.418 216.021 348.418 C 216.003 348.366 215.989 348.354 215.97 348.322 L 215.963 348.322 C 211.564 340.844 203.57 336.854 195.575 337.093 Z" fill-rule="evenodd" style=""/>
  <path d="M 163.012 280.783 C 159.356 280.892 155.698 281.882 152.391 283.826 C 152.273 283.896 152.155 283.969 152.041 284.042 C 141.613 290.751 138.028 304.879 144.361 315.899 L 144.349 315.899 C 144.388 315.972 144.438 316.034 144.482 316.109 C 144.51 316.159 144.531 316.207 144.56 316.261 L 144.572 316.261 C 150.849 327.258 164.91 330.677 175.365 324.229 L 175.372 324.229 C 175.429 324.177 175.479 324.156 175.538 324.12 C 175.597 324.067 175.663 324.049 175.723 324.013 L 175.715 324.013 C 186.519 317.395 189.657 303.057 183.536 292.237 C 183.519 292.185 183.505 292.176 183.486 292.142 C 179.105 284.574 171.056 280.54 163.012 280.78 Z" fill-rule="evenodd" style=""/>
  <path d="M 130.195 224.489 C 126.619 224.669 123.057 225.738 119.837 227.727 L 119.83 227.727 C 119.772 227.78 119.721 227.8 119.664 227.839 C 119.604 227.889 119.539 227.9 119.479 227.944 L 119.487 227.944 C 108.683 234.562 105.545 248.899 111.666 259.717 C 111.683 259.767 111.697 259.778 111.715 259.81 C 118.084 270.814 132.215 274.344 142.804 268.126 C 142.925 268.058 143.043 267.983 143.161 267.91 C 153.589 261.201 157.171 247.073 150.834 236.055 L 150.845 236.055 C 150.817 236.002 150.78 235.959 150.756 235.907 C 150.712 235.834 150.684 235.761 150.642 235.691 L 150.63 235.695 C 146.29 228.087 138.222 224.091 130.196 224.493 Z" fill-rule="evenodd" style=""/>
  <path d="M 321.684 317.233 C 303.508 317.233 288.462 332.672 288.462 351.562 C 288.462 370.335 303.397 385.898 321.684 385.898 C 340.081 385.898 354.906 370.224 354.906 351.562 C 354.906 332.782 339.974 317.233 321.684 317.233 Z M 321.684 338.268 C 328.964 338.268 334.404 343.837 334.404 351.561 C 334.404 358.992 328.854 364.861 321.684 364.861 C 314.8 364.861 308.964 358.883 308.964 351.561 C 308.964 343.946 314.692 338.268 321.684 338.268 Z" fill-rule="evenodd" style=""/>
  <path d="M 384.012 231.917 C 365.722 231.917 350.79 247.466 350.79 266.244 C 350.79 284.908 365.614 300.58 384.012 300.58 C 402.299 300.58 417.234 285.018 417.234 266.244 C 417.234 247.355 402.186 231.917 384.012 231.917 Z M 384.012 252.953 C 391.005 252.953 396.731 258.629 396.731 266.244 C 396.731 273.565 390.896 279.544 384.012 279.544 C 376.84 279.544 371.292 273.674 371.292 266.244 C 371.292 258.519 376.731 252.953 384.012 252.953 Z" fill-rule="evenodd" style=""/>
  <path d="M 258.558 98.55 C 244.216 98.55 231.097 101.991 220.813 108.298 C 210.53 114.602 202.367 124.7 202.367 137.228 C 202.367 149.718 210.564 159.725 220.836 165.993 C 231.109 172.263 244.218 175.706 258.561 175.706 C 272.903 175.706 286.014 172.263 296.287 165.993 C 306.561 159.725 314.757 149.723 314.757 137.228 C 314.757 124.699 306.585 114.604 296.302 108.298 C 286.018 101.991 272.899 98.55 258.557 98.55 Z M 258.558 119.581 C 269.582 119.581 279.441 122.462 285.788 126.354 C 292.135 130.246 294.252 134.229 294.252 137.228 C 294.252 140.064 292.164 144.035 285.805 147.913 C 279.448 151.791 269.586 154.666 258.558 154.666 C 247.535 154.666 237.67 151.791 231.31 147.913 C 224.953 144.035 222.866 140.064 222.866 137.228 C 222.866 134.229 224.989 130.246 231.332 126.354 C 237.679 122.462 247.531 119.581 258.555 119.581 Z" fill-rule="evenodd" style=""/>
  <path d="M 254.276 19.711 C 253.046 19.873 251.844 20.265 250.749 20.863 L 61.403 122.086 C 58.113 123.877 55.929 127.632 55.956 131.454 L 55.956 134.576 C 55.721 135.841 55.742 137.089 55.956 138.354 L 55.956 356.576 C 55.956 364.111 59.25 366.255 63.327 368.735 C 125.543 406.112 187.827 443.37 250.109 480.644 C 254.375 482.884 258.617 482.388 261.002 480.972 C 323.611 443.646 386.097 406.106 448.591 368.574 C 454.6 364.939 455.595 361.421 455.799 356.905 L 455.799 137.369 C 455.845 136.8 455.838 136.293 455.799 135.726 L 455.799 131.452 C 455.795 127.597 453.542 123.835 450.192 122.085 L 260.36 20.87 C 258.833 20.071 257.11 19.67 255.394 19.718 C 255.021 19.695 254.647 19.695 254.271 19.718 Z M 255.555 42.06 L 428.883 134.413 L 255.71 237.935 L 82.868 134.413 Z M 435.29 154.457 L 435.29 352.473 C 378.755 386.049 322.36 419.875 265.962 453.696 L 265.962 256.338 C 273.76 251.606 392.44 179.48 435.29 154.457 Z M 76.461 154.953 L 245.459 256.176 L 245.459 453.534 C 189.202 419.653 132.839 386.143 76.461 352.48 Z" fill-rule="evenodd" style=""/>
</svg>